# Blender v2.76 (sub 0) OBJ File: 'simple.blend'
# www.blender.org
mtllib simple.mtl
o Cube_Cube.001
v 1.510339 -1.303073 -0.208094
v 1.510339 -0.322326 1.478401
v -0.489661 -1.165206 0.323416
v -0.489661 -0.368492 -1.438276
v 1.510339 0.444001 -1.141053
v 1.510338 1.294642 0.533973
v -0.489662 0.650854 1.098869
v -0.489661 1.345734 -0.683916
v 3.232327 -1.376542 -0.111386
v 3.232327 -0.267782 1.553141
v 3.232328 0.287986 -1.220145
v 3.232327 1.396746 0.444382
v -1.988480 -1.210145 0.261836
v -1.988480 -0.305127 -1.521684
v -1.988481 0.573374 1.166854
v -1.988480 1.477844 -0.616943
v 1.510339 -5.294930 2.498693
v 1.510339 -4.186170 4.163220
v 3.232327 -5.294930 2.498694
v 3.232327 -4.186170 4.163221
v -0.489661 -5.336388 -1.831961
v -0.489660 -4.431369 -3.615480
v -1.988480 -5.336388 -1.831962
v -1.988479 -4.431369 -3.615481
vn -0.054600 -0.997100 0.053200
vn -0.011300 0.862400 -0.506000
vn -0.163400 0.048500 0.985400
vn 0.035000 0.911900 0.408900
vn 0.167000 -0.050800 -0.984700
vn 1.000000 -0.000000 0.000000
vn -0.020500 0.530300 0.847600
vn -0.029800 -0.513300 -0.857700
vn 0.011400 -0.557800 -0.829900
vn -1.000000 -0.000000 -0.000000
vn 0.032900 0.428400 -0.903000
vn 0.019200 -0.422900 0.906000
vn -0.011500 -0.455800 0.890000
vn -0.000000 -0.832300 0.554400
vn -0.026800 0.562300 0.826500
vn 0.000000 -0.891800 -0.452500
vn 0.034400 0.462200 -0.886100
vn 0.052800 0.997600 -0.044900
usemtl Material
s off
f 1//1 2//1 3//1 4//1
f 5//2 6//2 12//2 11//2
f 2//3 6//3 7//3 3//3
f 7//4 8//4 16//4 15//4
f 5//5 1//5 4//5 8//5
f 9//6 11//6 12//6 10//6
f 6//7 2//7 10//7 12//7
f 1//8 5//8 11//8 9//8
f 1//9 9//9 19//9 17//9
f 13//10 15//10 16//10 14//10
f 8//11 4//11 14//11 16//11
f 3//12 7//12 15//12 13//12
f 3//13 13//13 23//13 21//13
f 18//14 17//14 19//14 20//14
f 10//15 2//15 18//15 20//15
f 9//6 10//6 20//6 19//6
f 2//10 1//10 17//10 18//10
f 22//16 21//16 23//16 24//16
f 14//17 4//17 22//17 24//17
f 13//10 14//10 24//10 23//10
f 4//6 3//6 21//6 22//6
f 5//18 8//18 7//18 6//18
